<?xml version="1.0" standalone="no"?>
<!DOCTYPE svg PUBLIC "-//W3C//DTD SVG 20010904//EN"
 "http://www.w3.org/TR/2001/REC-SVG-20010904/DTD/svg10.dtd">
<svg version="1.0" xmlns="http://www.w3.org/2000/svg"
 width="404.000000pt" height="404.000000pt" viewBox="0 0 404.000000 404.000000"
 preserveAspectRatio="xMidYMid meet">
<metadata>
Created by potrace 1.11, written by Peter Selinger 2001-2013
</metadata>
<g transform="translate(0.000000,404.000000) scale(0.100000,-0.100000)"
fill="#000000" stroke="none">
<path d="M3267 3994 c-1 -1 -110 -5 -242 -8 -132 -4 -262 -8 -290 -10 -27 -2
-106 -7 -175 -11 -239 -14 -235 -13 -495 -40 -22 -2 -71 -7 -110 -10 -113 -11
-128 -13 -135 -25 -4 -7 -26 -13 -49 -13 -22 -1 -41 -4 -41 -7 0 -3 -12 -6
-27 -6 -30 -1 -135 -14 -168 -20 -11 -2 -40 -7 -65 -10 -25 -3 -54 -8 -65 -10
-11 -2 -36 -7 -55 -10 -19 -4 -44 -9 -55 -11 -11 -2 -36 -6 -55 -9 -19 -2 -60
-9 -90 -16 -30 -6 -68 -12 -85 -14 -16 -2 -72 -14 -124 -28 -52 -14 -98 -23
-103 -20 -4 3 -8 1 -8 -3 0 -5 -8 -9 -17 -9 -21 -1 -35 -5 -163 -38 -52 -14
-96 -25 -98 -25 -1 -1 -12 -3 -25 -6 -12 -3 -33 -7 -47 -9 -14 -3 -26 -5 -27
-7 -2 -1 -7 -3 -13 -4 -5 -1 -11 -3 -12 -5 -2 -1 -10 -3 -18 -5 -8 -1 -52 -13
-97 -25 -45 -12 -84 -20 -85 -19 -10 12 -47 -42 -52 -76 -3 -22 -7 -49 -10
-60 -2 -11 -7 -37 -11 -59 -4 -21 -9 -48 -11 -60 -25 -118 -35 -177 -39 -236
-2 -25 -4 -45 -5 -45 -3 0 -7 -41 -11 -102 -2 -29 -6 -53 -10 -53 -5 0 -12
-64 -12 -112 1 -16 -2 -28 -6 -28 -3 0 -7 -28 -7 -63 -3 -87 -9 -151 -18 -165
-4 -7 -2 -12 4 -12 6 0 8 -5 3 -12 -9 -15 -14 -88 -16 -240 -1 -58 -4 -105 -7
-103 -3 2 -5 -8 -5 -21 0 -13 3 -24 7 -24 4 0 3 -12 -3 -27 -7 -19 -6 -28 2
-33 6 -4 7 -10 2 -13 -11 -7 -11 -77 0 -94 4 -6 4 -14 0 -16 -7 -4 -8 -150 -2
-167 5 -15 3 -36 -4 -47 -4 -6 -3 -14 3 -18 5 -3 10 -11 10 -16 0 -6 -5 -7
-12 -3 -7 4 -8 3 -4 -5 4 -6 10 -53 12 -104 3 -50 7 -119 9 -152 2 -33 4 -60
5 -60 2 0 4 -27 5 -60 3 -54 8 -104 19 -175 2 -14 7 -47 11 -75 4 -27 9 -59
12 -70 4 -19 13 -88 16 -127 1 -10 4 -18 7 -18 3 0 6 -17 6 -38 1 -20 9 -71
17 -112 9 -41 19 -91 21 -110 6 -42 14 -82 18 -86 3 -2 129 -39 168 -49 8 -2
60 -16 115 -30 55 -15 109 -28 120 -30 11 -1 61 -10 110 -20 50 -9 101 -19
115 -21 14 -2 45 -9 70 -14 40 -8 62 -12 135 -25 11 -1 45 -6 75 -10 172 -22
192 -24 215 -29 11 -2 47 -7 80 -11 33 -4 74 -8 90 -10 17 -2 61 -7 98 -10 37
-4 75 -8 85 -10 9 -1 58 -6 107 -10 50 -4 101 -12 115 -18 14 -6 39 -12 55
-13 17 -2 50 -5 75 -8 25 -2 86 -7 135 -11 50 -3 113 -8 140 -11 98 -9 181
-15 240 -19 33 -2 98 -6 145 -10 172 -13 197 -14 310 -20 63 -3 156 -8 205
-10 209 -10 373 -16 576 -20 l215 -3 0 21 c2 58 15 211 20 219 3 4 0 8 -7 8
-8 0 -8 4 -2 12 6 7 9 29 8 48 -1 19 2 41 8 48 6 8 6 12 -2 12 -7 0 -9 5 -5
12 4 6 9 48 10 92 2 45 5 102 7 129 3 30 0 47 -7 47 -8 0 -8 2 0 8 6 4 11 21
11 37 0 17 3 102 7 190 9 247 10 351 1 365 -5 8 -4 11 3 6 7 -4 10 1 9 14 -1
11 -5 20 -10 20 -4 0 -5 6 0 13 10 16 11 28 1 55 -4 13 -5 21 0 19 9 -6 7 952
-3 1183 -8 196 -12 275 -15 275 -1 0 -2 17 -3 38 -1 20 3 37 8 37 7 0 7 3 0 8
-5 4 -11 27 -11 52 -4 130 -23 429 -38 595 -2 22 -7 74 -11 115 -3 41 -8 86
-10 100 -9 63 -19 156 -17 163 1 4 -58 7 -130 8 -73 0 -220 1 -326 2 -107 1
-194 1 -195 1z"/>
</g>
</svg>
