<svg xmlns:dc="http://purl.org/dc/elements/1.1/" xmlns:cc="http://creativecommons.org/ns#" xmlns:rdf="http://www.w3.org/1999/02/22-rdf-syntax-ns#" xmlns:svg="http://www.w3.org/2000/svg" xmlns="http://www.w3.org/2000/svg" height="535.1059606381975" width="512.6490065603002" version="1.1"><rect id="backgroundrect" width="100%" height="100%" x="0" y="0" fill="none" stroke="none" class=""/>
  <metadata id="metadata57">
    <rdf:RDF>
      <cc:Work rdf:about="">
        <dc:format>image/svg+xml</dc:format>
        <dc:type rdf:resource="http://purl.org/dc/dcmitype/StillImage"/>
      </cc:Work>
    </rdf:RDF>
  </metadata>
  <defs id="defs55"/>
  
<g class="currentLayer"><title>Layer 1</title><g id="Layer1000" class="">
    <path id="path2" style="fill:#003d36;fill-rule:evenodd" d="m118.57633094615937,519.93627721529 h269.331 v-22.6536 h-269.331 z"/>
    <path id="path4" style="fill:#003d36;fill-rule:evenodd" d="m233.11163094615938,156.44197721529008 h8.7899 c0,5.2149 0,5.8823 0,11.1791 l-1.9725,0.5977000000000005 c-4.6610000000000005,1.0622 -5.2099,-0.3721000000000002 -6.8174,-0.9579000000000004 c0,-5.4011 0,-5.119 0,-10.8189 z"/>
    <path id="path6" style="fill:#003d36;fill-rule:evenodd" d="m266.63913094615936,156.44197721529008 h8.7899 c0,5.2149 0,5.8823 0,11.1791 l-1.9724,0.5977000000000005 c-4.6611,1.0622 -5.21,-0.3721000000000002 -6.8175,-0.9579000000000004 c0,-5.4011 0,-5.119 0,-10.8189 z"/>
    <path id="path8" style="fill:#003d36;fill-rule:evenodd" d="m255.04233094615938,63.872177215290066 l-48.6756,32.8507 h10.417300000000001 l-0.7005,3.6368 h-22.8875 l-10.0267,7.6374 l-6.4369,-4.5459 l-22.4504,19.0942 h6.4639 l-5.4547,57.8259 h-2.3653 l-1.3626,13.4442 c64.4397,39.3341 144.7951,40.5371 207.078,0.2358 l-0.1253,-1.1492 l-1.3561,-12.5308 h-2.3652 l-5.4542,-57.8259 h6.463 l-22.4504,-19.0942 l-6.4366,4.5459 l-10.027,-7.6374 h-22.8875 l-0.7002,-3.6368 h10.4171 zm30.2874,224.7534 c0,-2.4911 -0.4723000000000002,-4.4844 -1.4171,-5.9922 c-0.9513,-1.5009000000000001 -2.2583,-2.2388 -3.9279,-2.213 c-1.6047000000000002,0 -2.8406000000000002,0.7121000000000004 -3.7143,2.1422 c-0.8736000000000007,1.4232 -1.307,3.1901 -1.307,5.2866 c0,2.4913 0.4722,4.4844 1.417,5.9921 c0.9513,1.501 2.2584,2.2388 3.9277,2.213 c1.4624000000000001,0 2.6663,-0.6536000000000007 3.6108000000000002,-1.9672 c0.9385,-1.3136 1.4108,-3.1385 1.4108,-5.4615 zm3.2031,-0.7572000000000004 c0,3.0351 -0.7509000000000005,5.5715 -2.2518000000000002,7.623 c-1.5078,2.0449 -3.6303,3.0673 -6.374,3.0673 c-2.6271,0 -4.6397,-0.932 -6.0437,-2.802 c-1.4043,-1.8703 -2.1034,-4.2579 -2.1034,-7.1504 c0,-3.0351 0.7509000000000005,-5.5715 2.2522,-7.6229000000000005 c1.5077,-2.0447 3.63,-3.0671 6.3737,-3.0671 c2.6271,0 4.6397,0.9317000000000004 6.044,2.8017000000000003 c1.404,1.8703 2.103,4.258 2.103,7.1504 zm-27.1066,-7.092 h-0.14880000000000004 c0,0.34300000000000036 -1.3589,2.3103000000000002 -4.0768,5.8950000000000005 c-2.7178,3.5915 -4.0765,5.4873 -4.0765,5.6880000000000015 v0.1553000000000001 c2.2258,0 4.9241,-0.045300000000000056 8.0952,-0.1361 c0.025800000000000014,-3.9149000000000003 0.09700000000000011,-7.7842 0.2069000000000001,-11.6022 zm6.3545,11.4149 l-0.4014000000000002,2.9764 h-3.2806 c0,2.349 0.07770000000000007,5.4096 0.22650000000000015,9.1757 h-3.2419000000000002 c0.10370000000000006,-3.2613 0.1553000000000001,-6.3218 0.1553000000000001,-9.1757 h-10.7289 l-0.4011,-2.388 c0,-0.32990000000000036 1.715,-2.8145 5.1381,-7.4542 c3.4229000000000003,-4.6332 5.1313,-7.0532 5.1183,-7.2408 h3.9602 c-0.14880000000000004,2.8601 -0.22650000000000015,7.6288 -0.22650000000000015,14.3135 c1.1518,0 2.3749000000000002,-0.07110000000000002 3.6820000000000004,-0.2069000000000001 zm-21.2698,2.5948 c0,2.6076 -1.275,4.9178 -3.8115,6.9367 c-2.5429,2.0253 -5.934,3.1189 -10.1786,3.2805 l-0.5309,-2.2323 c3.488,-0.22020000000000015 6.2189,-0.9706 8.1989,-2.2583 c1.9735,-1.2878 2.9636,-2.9118 2.9636,-4.8728 c0,-2.1223 -0.8025,-3.6105 -2.4072,-4.4646 c-1.6049000000000002,-0.8543000000000004 -4.4779,-1.2815 -8.6258,-1.2815 c0.7053,-5.7589000000000015 1.0616,-9.6996 1.0616,-11.8091 h11.5826 l-0.11000000000000006,3.0152 c-2.5817,-0.3558000000000002 -5.6296,-0.5304 -9.1369,-0.5304 c-0.34300000000000036,2.4134 -0.5176000000000004,4.6783 -0.5176000000000004,6.7879000000000005 c3.8954,0 6.7882,0.5887000000000004 8.6774,1.7730000000000001 c1.8896000000000006,1.1778 2.8344,3.0674 2.8344,5.6557 zm-20.5903,3.3001 h-3.2423 c0.1364000000000001,-2.6663 0.2073,-5.4354000000000005 0.2073,-8.3024 c0,-3.3259 -0.0709,-5.7783999999999995 -0.2073,-7.357 l-4.3222000000000005,2.1611000000000002 l-0.8932000000000004,-1.6500000000000008 l6.8269,-5.0216 h1.6308000000000002 c-0.1295,4.0833 -0.19440000000000018,8.0368 -0.19440000000000018,11.8675 c0,2.7051 0.06490000000000005,5.468 0.19440000000000018,8.3024 zM118.92323094615935,15.770177215290076 H387.07253094615936 V162.97877721529005 L356.36563094615934,150.70497721529006 l0.5069,5.3742 l30.2,9.1508 v116.4093 c-49.7622,62.9084 -217.4321,66.3364 -268.1493,-0.6755000000000004 V166.90447721529006 c17.4572,-5.1228 17.5031,-4.7588 34.1328,-9.25 l0.6685000000000004,-7.6661 c-19.2187,7.5328 -18.9222,7.6014 -34.8013,13.5273 zm32.6401,187.8163 c43.8599,23.5287 94.6548,32.7421 144.0646,24.2118 c25.007,-4.3174 41.2104,-11.6387 63.0134,-23.976 c-32.7943,20.5002 -77.0446,37.9026 -116.4325,32.2461 c-36.7628,-5.2792 -58.8413,-13.583 -90.6455,-32.4819 z"/>
    <path id="path10" style="fill:#003d36;fill-rule:evenodd" d="m62.69243094615936,408.7624772152901 l192.9935,-5.1559 l192.9939,5.1559 l-192.9939,5.1559 z"/>
    <path id="path12" style="fill:#003d36;fill-rule:evenodd" d="m91.16853094615936,431.95887721529004 l-0.1576000000000001,4.6576 c-4.3541,-0.22500000000000014 -8.8542,-0.33750000000000036 -13.4896,-0.33750000000000036 c-0.04500000000000004,4.2191 -0.06750000000000007,9.5746 -0.06750000000000007,16.0548 c0,7.1666 0.11250000000000006,14.6823 0.33750000000000036,22.5464 h-6.0302 c0.2588000000000002,-7.4928 0.39380000000000037,-15.0085 0.39380000000000037,-22.5464 c0,-6.3902 -0.06750000000000007,-11.7457 -0.2025,-16.0548 c-3.2516,0 -7.8195,0.135 -13.7034,0.3937000000000002 l0.1575000000000001,-4.7138 zm36.3285,37.9484 l-0.2025,4.9729 h-26.563 c0.3038000000000003,-6.8178 0.4613000000000002,-14.3222 0.4613000000000002,-22.5464 c0,-7.7291 -0.1575000000000001,-14.5247 -0.4613000000000002,-20.3749 h24.9203 l-0.27,4.9164 c-6.0414,-0.2588000000000002 -12.4433,-0.39380000000000037 -19.2161,-0.39380000000000037 c0.1351,3.409 0.2026,8.0107 0.2026,13.8046 c5.8389,0 11.0481,-0.12370000000000007 15.6161,-0.3937000000000002 v4.9167000000000005 c-4.8717000000000015,-0.2026 -10.081,-0.3038000000000003 -15.6161,-0.3038000000000003 c0,5.6477 0.10120000000000005,10.9469 0.2925000000000002,15.897 c7.3016,0 14.2435,-0.16880000000000014 20.8362,-0.4950000000000002 zm39.9402,-27.294 c0,5.0063 -1.9015,8.7529 -5.7043,11.2394 c-3.8025,2.4865 -8.9105,3.7241 -15.3232,3.7241 c-0.8101,0 -1.5189,-0.022500000000000027 -2.1152,-0.06750000000000007 c0,4.7926 0.1800000000000001,10.5756 0.5288,17.3709 h-6.3231 c0.32630000000000037,-6.244 0.4950000000000002,-13.7597 0.4950000000000002,-22.5464 c0,-7.5603 -0.16870000000000018,-14.3447 -0.4950000000000002,-20.3749 h4.7142 c0.5063,0 1.9464000000000001,-0.022500000000000027 4.3316,-0.0900000000000001 c2.3849,-0.06750000000000007 4.4101,-0.1013 6.0865,-0.1013 c4.2191,0 7.5716,0.9564 10.0693,2.8803 c2.4865,1.9236 3.7354000000000003,4.5788 3.7354000000000003,7.9654 zm-5.5018,1.9127 c0,-5.6481 -3.8588,-8.4721 -11.577,-8.4721 c-1.8785,0 -4.005,0.1575000000000001 -6.3565000000000005,0.4951000000000002 c0.1576000000000001,3.5778 0.2363,9.1583 0.2363,16.7412 c0.7651000000000004,0.04500000000000004 1.7102,0.06750000000000007 2.8353,0.06750000000000007 c9.9005,0 14.8619,-2.9478 14.8619,-8.8317 zm48.1193,30.3542 h-6.2556 c0.2138000000000001,-7.6053 0.32630000000000037,-14.4122 0.32630000000000037,-20.4312 h-19.7449 c0,4.8714 0.11250000000000006,11.6895 0.32630000000000037,20.4312 h-6.2556 c0.3038000000000003,-8.0216 0.4613000000000002,-15.5373 0.4613000000000002,-22.5464 c0,-7.3353 -0.1575000000000001,-14.1309 -0.4613000000000002,-20.3749 h6.2556 c-0.2588000000000002,6.289 -0.39380000000000037,12.3983 -0.39380000000000037,18.3272 h19.8799 c0,-4.7588 -0.135,-10.8681 -0.39380000000000037,-18.3272 h6.2556 c-0.32630000000000037,6.109 -0.4951000000000002,12.9046 -0.4951000000000002,20.3749 c0,8.2017 0.16880000000000014,15.7174 0.4951000000000002,22.5464 zm52.4168,-22.1188 c0,7.099 -2.0702,12.7696 -6.2327,17.0221 c-4.1517,4.2529 -8.9558,6.3793 -14.401,6.3793 c-5.2317,0 -9.8105,-1.9464000000000001 -13.7597,-5.8505 c-3.9487,-3.8925 -5.9177,-9.1693 -5.9177,-15.807 c0,-7.1782 2.0815,-12.8821 6.2328,-17.09 c4.1516,-4.2075 8.955400000000001,-6.3115 14.4009,-6.3115 c5.2314,0 9.8218,1.9577 13.7597,5.8502 c3.9488000000000003,3.9041 5.9177,9.1696 5.9177,15.8074 zm-5.8614,0.7650000000000005 c0,-5.6705000000000005 -1.4964,-10.0693 -4.4667,-13.1746 c-2.9815,-3.1053 -6.4127,-4.6579 -10.3056,-4.6579 c-3.6003,0 -6.8065,1.6314000000000002 -9.6193,4.9055 c-2.8127,3.274 -4.2191,7.6503 -4.2191,13.1183 c0,5.6927 1.4964,10.0918 4.4891,13.1971 c3.0041,3.1162 6.4353,4.6689 10.3056,4.6689 c3.6004,0 6.8066,-1.6539000000000001 9.6081,-4.9726 c2.8015,-3.3191 4.2079,-7.6845 4.2079,-13.0847 zm47.7142,21.3538 h-6.0643 c0.22500000000000014,-6.1539 0.33750000000000036,-13.3659 0.33750000000000036,-21.6575 c0,-6.5703 0.1801,-12.2746 0.5513,-17.1013 h-19.4073 c0.37130000000000035,4.613 0.5626000000000004,10.126 0.5626000000000004,16.5387 c0,8.3817 0.10120000000000005,15.7849 0.3262000000000002,22.2201 h-6.0643 c0.2813000000000002,-8.6967 0.4276000000000002,-16.3024 0.4276000000000002,-22.8051 c0,-6.154 -0.1463,-12.8596 -0.4276000000000002,-20.1162 h29.7583 c-0.2588000000000002,7.0203 -0.39380000000000037,13.7147 -0.39380000000000037,20.1162 c0,6.649 0.135,14.2547 0.39380000000000037,22.8051 zm52.4056,-22.1188 c0,7.099 -2.0702,12.7696 -6.2327,17.0221 c-4.1517,4.2529 -8.9559,6.3793 -14.401,6.3793 c-5.2317,0 -9.8106,-1.9464000000000001 -13.7597,-5.8505 c-3.9487,-3.8925 -5.9177,-9.1693 -5.9177,-15.807 c0,-7.1782 2.0815,-12.8821 6.2328,-17.09 c4.1516,-4.2075 8.955400000000001,-6.3115 14.4009,-6.3115 c5.2314,0 9.8218,1.9577 13.7597,5.8502 c3.9488000000000003,3.9041 5.9177,9.1696 5.9177,15.8074 zm-5.8614,0.7650000000000005 c0,-5.6705000000000005 -1.4964,-10.0693 -4.4667,-13.1746 c-2.9815,-3.1053 -6.4127,-4.6579 -10.3056,-4.6579 c-3.6003,0 -6.8065,1.6314000000000002 -9.6193,4.9055 c-2.8127,3.274 -4.2191,7.6503 -4.2191,13.1183 c0,5.6927 1.4964,10.0918 4.4891,13.1971 c3.0041,3.1162 6.4353,4.6689 10.3056,4.6689 c3.6004,0 6.8066,-1.6539000000000001 9.6081,-4.9726 c2.8015,-3.3191 4.2079,-7.6845 4.2079,-13.0847 zm46.9941,-21.5675 c-0.27,7.0203 -0.3937000000000002,13.7147 -0.3937000000000002,20.1162 c0,8.0328 0.12370000000000007,15.6386 0.3937000000000002,22.8051 h-6.0643 c0.2363,-6.1539 0.3601000000000002,-13.3659 0.3601000000000002,-21.6575 c0,-6.5703 -0.04500000000000004,-12.2746 -0.135,-17.1013 h-8.1342 c-0.1800000000000001,1.0239 -0.4838000000000003,2.374 -0.9226000000000004,4.0392 c-0.43880000000000036,1.6539000000000001 -0.9901,3.4878 -1.6314000000000002,5.5017 c-0.6525000000000004,2.0136 -1.3839000000000001,4.1288 -2.2161,6.3565000000000005 c-0.8213,2.2277 -1.7101000000000002,4.4329 -2.6777,6.6153 c-0.9676000000000005,2.1714 -1.9914999999999998,4.2529 -3.0491,6.2443 c-1.0688,1.9914 -2.1602,3.7466 -3.2853,5.2876 c-1.1251,1.5413999999999999 -2.2611,2.779 -3.4087,3.7241 c-1.1588,0.9451 -2.3064,1.4627 -3.4428,1.5527000000000002 l-0.33750000000000036,-5.9406 c0.5963,-0.12370000000000007 1.2713,-0.6072000000000004 2.0364,-1.4285 c0.7538000000000006,-0.8213 1.5639,-1.8902 2.419,-3.2178 c0.8551000000000004,-1.3164 1.7323,-2.8353 2.6324,-4.5567 c0.9001,-1.7326000000000001 1.7889,-3.5662000000000003 2.6552000000000002,-5.5126 c0.8664000000000004,-1.9465 1.7102,-3.9492000000000003 2.5202999999999998,-6.0081 c0.8213,-2.0698 1.5526,-4.1063 2.2164,-6.0977 c0.6526000000000007,-2.0027 1.2151,-3.9154 1.6877000000000009,-5.7605 c0.4722,-1.8336000000000001 0.8209000000000004,-3.4875 1.046,-4.9614 zm42.7863,42.9213 h-6.1314 c0.2588000000000002,-5.1192 0.39340000000000036,-11.2282 0.39340000000000036,-18.3272 c-1.451,-0.04500000000000004 -3.1162,-0.06750000000000007 -4.9838000000000005,-0.06750000000000007 c-4.0167,0 -7.0203,1.0351 -8.9893,3.1049 c-1.9802,2.0589 -3.8141,6.4356 -5.513,13.1184 c-0.2813000000000002,1.1588 -0.54,1.8901000000000003 -0.7876000000000004,2.1714 h-6.4915 c0.2588000000000002,-0.6638000000000007 0.6751000000000007,-1.7551 1.2489000000000001,-3.2965 c2.1827,-6.3678 3.9488000000000003,-10.5307 5.3214,-12.4771 c1.3726,-1.9461 3.3641,-3.2849 5.9518,-4.0388 v-0.3600000000000002 c-6.4806,-1.3614000000000002 -9.7205,-5.1305 -9.7205,-11.3069 c0,-7.752 5.3551,-11.6333 16.0882,-11.6333 c1.5977000000000001,0 3.3866,0.03380000000000004 5.3668000000000005,0.1013 c1.9802,0.06750000000000007 3.1724,0.0900000000000001 3.5887000000000002,0.0900000000000001 h4.6579 c-0.33750000000000036,5.8502 -0.4950000000000002,12.6458 -0.4950000000000002,20.3749 c0,8.2242 0.1575000000000001,15.7286 0.4950000000000002,22.5464 zm-5.738,-22.7489 c0,-4.9392 -0.1346,-10.1368 -0.39340000000000036,-15.5823 c-3.3641,-0.2926 -6.0081,-0.4276000000000002 -7.9433,-0.4276000000000002 c-3.5887000000000002,0 -6.1427,0.5288 -7.6728000000000005,1.5977000000000001 c-1.5189,1.0576 -2.284,2.8015 -2.284,5.2205 c0,6.1764 4.6355,9.2592 13.906,9.2592 c1.8676000000000008,0 3.3303000000000003,-0.022500000000000027 4.3875,-0.06750000000000007 z"/>
    <path id="path14" style="fill:#003d36;fill-rule:evenodd" d="m93.22703094615937,345.37477721529007 l-0.15240000000000015,4.5052 c-4.2115,-0.21740000000000018 -8.5642,-0.32630000000000037 -13.0476,-0.32630000000000037 c-0.04350000000000004,4.0805 -0.06530000000000002,9.2603 -0.06530000000000002,15.5286 c0,6.9317 0.10890000000000002,14.201 0.3266000000000002,21.8074 H74.45563094615936 c0.25,-7.2474 0.3807000000000002,-14.5167 0.3807000000000002,-21.8074 c0,-6.1812000000000005 -0.06530000000000002,-11.361 -0.19600000000000015,-15.5286 c-3.1448,0 -7.5629,0.1306 -13.2541,0.3807000000000002 l0.15240000000000015,-4.5596 zm43.1362,41.5149 h-6.7249 c0,-1.4256 -1.3385,-5.898 -4.0155,-13.4174 h-18.4016 c-2.6335,7.4105 -3.9502,11.8829 -3.9502,13.4174 h-6.4422 c0,-0.7835 2.7424,-7.5846 8.2271,-20.3927 c5.4843,-12.7975 8.2267,-19.8381 8.2267,-21.1222 h7.3999 c0,1.2623 2.6117,8.1944 7.8347,20.8283 c5.2343,12.6229 7.846,19.5223 7.846,20.6866 zM124.15363094615935,369.29347721529007 c-4.9947,-12.4814 -7.4975000000000005,-19.1087 -7.4975000000000005,-19.8923 h-0.3484000000000004 c0,0.6530000000000006 -2.5791,7.2911 -7.748,19.8923 zm49.0996,-13.6134 c0,4.8426 -1.839,8.4662 -5.517,10.871 c-3.678,2.4052 -8.6187,3.6022 -14.8212,3.6022 c-0.7836000000000004,0 -1.4692,-0.021800000000000014 -2.0459,-0.06540000000000006 c0,4.6358 0.1742000000000001,10.2291 0.5114,16.8018 h-6.1155 c0.3154000000000003,-6.0396 0.4787,-13.3085 0.4787,-21.8074 c0,-7.3128 -0.1633000000000001,-13.8747 -0.4787,-19.7075 h4.5595 c0.4896000000000002,0 1.8826,-0.021800000000000014 4.1894,-0.0871000000000001 c2.3072,-0.06530000000000002 4.266,-0.09760000000000012 5.8872,-0.09760000000000012 c4.0809,0 7.3237,0.9248000000000004 9.7394,2.7855 c2.4049,1.8608000000000002 3.6127000000000002,4.429 3.6127000000000002,7.7045 zm-5.321,1.8498 c0,-5.4625 -3.7328,-8.194 -11.1977,-8.194 c-1.8172000000000001,0 -3.874,0.1525000000000001 -6.1485,0.4787 c0.15240000000000015,3.4606 0.2286000000000001,8.8582 0.2286000000000001,16.1925 c0.7401000000000004,0.04350000000000004 1.6543,0.06530000000000002 2.7424,0.06530000000000002 c9.5761,0 14.3752,-2.8509 14.3752,-8.5425 zm46.542,29.3598 h-6.0502 c0.20650000000000004,-7.3563 0.3154000000000003,-13.9396 0.3154000000000003,-19.7615 H189.64163094615935 c0,4.7116 0.10890000000000002,11.3062 0.3154000000000003,19.7615 h-6.0501 c0.2936,-7.7588 0.4460000000000003,-15.0281 0.4460000000000003,-21.8074 c0,-7.0951 -0.15240000000000015,-13.6678 -0.4460000000000003,-19.7075 h6.0501 c-0.25,6.0832 -0.3807000000000002,11.9922 -0.3807000000000002,17.727 h19.2284 c0,-4.6032 -0.1306,-10.5122 -0.3807000000000002,-17.727 h6.0502 c-0.3154000000000003,5.909 -0.4788000000000002,12.4818 -0.4788000000000002,19.7075 c0,7.9327000000000005 0.1634000000000002,15.202 0.4788000000000002,21.8074 zm50.6994,-21.394 c0,6.8664000000000005 -2.0024,12.3511 -6.0288,16.4646 c-4.0155,4.1132 -8.6618,6.17 -13.9288,6.17 c-5.06,0 -9.4893,-1.8826 -13.3089,-5.6586 c-3.8195,-3.7651000000000003 -5.7239,-8.8687 -5.7239,-15.2894 c0,-6.9427 2.0133,-12.4597 6.0288,-16.5296 c4.0155,-4.07 8.6618,-6.105 13.9288,-6.105 c5.0601,0 9.5002,1.8938000000000001 13.3089,5.6589 c3.8195,3.776 5.7239,8.8687 5.7239,15.2891 zm-5.6695,0.7400000000000004 c0,-5.4847 -1.4474,-9.7394 -4.3204,-12.7427 c-2.8835,-3.0037 -6.2026,-4.5051 -9.9677,-4.5051 c-3.4824,0 -6.5837,1.5776000000000003 -9.3042,4.7443 c-2.7206,3.1666 -4.0809,7.3999 -4.0809,12.688600000000001 c0,5.5061 1.4474,9.7612 4.3422,12.7645 c2.9053,3.0142 6.2244,4.516 9.9677,4.516 c3.4824,0 6.5837,-1.5998 9.2934,-4.8100000000000005 c2.7096,-3.2101 4.0699,-7.4322 4.0699,-12.6556 zm46.1504,20.654 h-5.8654 c0.21770000000000014,-5.9525 0.3266000000000002,-12.9278 0.3266000000000002,-20.948 c0,-6.355 0.1742000000000001,-11.872 0.5332,-16.5405 h-18.7715 c0.3589000000000002,4.4616 0.544,9.7939 0.544,15.9965 c0,8.1073 0.09800000000000011,15.2677 0.31580000000000036,21.492 h-5.8654 c0.2718000000000002,-8.4117 0.4133000000000002,-15.7681 0.4133000000000002,-22.0578 c0,-5.9526 -0.14150000000000001,-12.4382 -0.4133000000000002,-19.4571 h28.7827 c-0.2501,6.7906 -0.3807000000000002,13.2654 -0.3807000000000002,19.4571 c0,6.4312000000000005 0.1306,13.7876 0.3807000000000002,22.0578 zm50.6885,-21.394 c0,6.8664000000000005 -2.0023,12.3511 -6.0287,16.4646 c-4.0156,4.1132 -8.6619,6.17 -13.9288,6.17 c-5.0601,0 -9.4894,-1.8826 -13.3089,-5.6586 c-3.8196000000000003,-3.7651000000000003 -5.7239,-8.8687 -5.7239,-15.2894 c0,-6.9427 2.0132,-12.4597 6.0287,-16.5296 c4.0156,-4.07 8.6619,-6.105 13.9288,-6.105 c5.0601,0 9.5003,1.8938000000000001 13.3089,5.6589 c3.8196000000000003,3.776 5.7239,8.8687 5.7239,15.2891 zm-5.6694,0.7400000000000004 c0,-5.4847 -1.4474,-9.7394 -4.3204,-12.7427 c-2.8836000000000004,-3.0037 -6.2026,-4.5051 -9.9677,-4.5051 c-3.4824,0 -6.5837,1.5776000000000003 -9.3043,4.7443 c-2.7206,3.1666 -4.0809,7.3999 -4.0809,12.688600000000001 c0,5.5061 1.4474,9.7612 4.3422,12.7645 c2.9053,3.0142 6.2244,4.516 9.9677,4.516 c3.4824,0 6.5837,-1.5998 9.2934,-4.8100000000000005 c2.7097,-3.2101 4.07,-7.4322 4.07,-12.6556 zm45.4538,-20.8609 c-0.2609,6.7906 -0.3807000000000002,13.2654 -0.3807000000000002,19.4571 c0,7.7697 0.11980000000000007,15.1261 0.3807000000000002,22.0578 h-5.8654 c0.22870000000000018,-5.9525 0.3484000000000004,-12.9278 0.3484000000000004,-20.948 c0,-6.355 -0.04350000000000004,-11.872 -0.1306,-16.5405 h-7.8678 c-0.1742000000000001,0.9901 -0.4678000000000002,2.2960000000000003 -0.8921000000000004,3.9067 c-0.4246000000000002,1.5995 -0.9578000000000004,3.3735 -1.578,5.3214 c-0.6312000000000004,1.9479000000000002 -1.3385,3.9937 -2.1439,6.1481 c-0.7941,2.1548 -1.6539000000000001,4.2878 -2.5899,6.3986 c-0.9357000000000004,2.1003 -1.9261,4.1135 -2.9489,6.0397 c-1.034,1.9261 -2.0894,3.6235 -3.1775,5.1145 c-1.0884,1.4909000000000001 -2.1874000000000002,2.6879 -3.2973,3.6018 c-1.1207,0.9142 -2.2309,1.4147 -3.3299000000000003,1.5018 l-0.32630000000000037,-5.7457 c0.5767000000000004,-0.11970000000000011 1.2296,-0.5876000000000005 1.9697,-1.3820000000000001 c0.7287000000000005,-0.7945 1.5123,-1.8281 2.3395,-3.1122 c0.8271000000000004,-1.2732 1.6756000000000006,-2.7424 2.5463,-4.4072 c0.8707000000000007,-1.6760000000000006 1.7301000000000002,-3.4497 2.5682,-5.3322 c0.8380000000000004,-1.8826 1.6539000000000001,-3.8196000000000003 2.4374000000000002,-5.811 c0.7945,-2.0023 1.5019,-3.972 2.1439,-5.8981 c0.6312000000000004,-1.937 1.1752,-3.7869 1.6321,-5.5715 c0.4573000000000002,-1.7736 0.7945,-3.3735 1.0123,-4.7991 zm41.3843,41.5149 h-5.9307 c0.2504,-4.9511 0.3810000000000002,-10.8601 0.3810000000000002,-17.7269 c-1.4038,-0.04350000000000004 -3.0145,-0.06500000000000006 -4.8209,-0.06500000000000006 c-3.8848000000000003,0 -6.7901,1.001 -8.6945,3.0033 c-1.9152,1.9914999999999998 -3.6892,6.2244 -5.3322,12.6883 c-0.2723000000000002,1.1211 -0.5223,1.8281 -0.7619000000000006,2.1003 h-6.2788 c0.2501,-0.6420000000000005 0.6530000000000006,-1.6974 1.2079,-3.1884 c2.1112,-6.1594 3.8195,-10.1854 5.1472,-12.068 c1.3276000000000001,-1.8825 3.2537,-3.1775 5.7565,-3.9066 v-0.34850000000000037 c-6.2679,-1.3167 -9.4019,-4.962 -9.4019,-10.9363 c0,-7.4976 5.1799,-11.2518 15.5613,-11.2518 c1.545,0 3.2752,0.03230000000000003 5.1907,0.09760000000000012 c1.9153,0.06530000000000002 3.0687,0.0871000000000001 3.4712,0.0871000000000001 h4.5051 c-0.32630000000000037,5.6586 -0.4787,12.2314 -0.4787,19.7075 c0,7.9545 0.15240000000000015,15.2129 0.4787,21.8074 zm-5.5497,-22.0034 c0,-4.7773 -0.1306,-9.8047 -0.3810000000000002,-15.0717 c-3.2538,-0.2827 -5.811,-0.4134000000000002 -7.6827000000000005,-0.4134000000000002 c-3.4711,0 -5.9416,0.5114 -7.4213000000000005,1.5453999999999999 c-1.4692,1.0228 -2.2092,2.7094 -2.2092,5.0492 c0,5.9742999999999995 4.4833,8.9558 13.4501,8.9558 c1.8067000000000002,0 3.221,-0.021700000000000014 4.2441,-0.06530000000000002 z"/>
    <path id="path16" style="fill:#003d36;fill-rule:evenodd" d="M114.51483094615935,521.90417721529 H384.38503094615936 V499.20527721529004 H114.51483094615935 z"/>
    <path id="path18" style="fill:#003d36;fill-rule:evenodd" d="m21.988730946159365,410.9386772152901 c0,1.9878 -0.8156000000000004,3.5099 -2.4321,4.5512 c-1.6238000000000001,1.0485 -3.932,1.5726 -6.9393,1.5726 c-1.5875,0 -4.0486,-0.04350000000000004 -7.3764,-0.131 c0.19670000000000018,-1.9515 0.2987,-5.2136 0.2987,-9.7939 c0,-4.2521 -0.2475000000000001,-7.74 -0.7502000000000004,-10.4707 h2.2212 c2.1188000000000002,-0.16000000000000014 4.274,-0.233 6.4657,-0.233 c5.0608,0 7.5949,1.5585 7.5949,4.6895 c0,2.3007 -1.0341,3.8809 -3.0948,4.7327 v0.2185000000000001 c2.6723,0.5099 4.0123,2.1337 4.0123,4.8641000000000005 zm-3.4588,0.2112000000000001 c0,-1.4637 -0.6700000000000007,-2.4538 -2.0024,-2.9634 c-0.8300000000000004,-0.3132000000000002 -2.1119,-0.4736 -3.8667000000000002,-0.4736 c-1.3323,0 -2.665,0.05120000000000003 -3.9901,0.1532000000000001 c0,2.534 0.014500000000000008,4.6383 0.04350000000000004,6.3129 c1.2961,0.1749000000000001 2.8473,0.2548 4.6529,0.2548 c3.4443,0 5.1628,-1.0921 5.1628,-3.2839 zm-0.7499000000000005,-9.109 c0,-1.9882 -1.4492,-2.9855 -4.3472,-2.9855 c-1.4271,0 -3.0654,0.06530000000000002 -4.9298,0.1891000000000001 c0.11650000000000008,2.0607 0.16770000000000018,4.0486 0.16770000000000018,5.9565 c1.7838,0.06530000000000002 3.2838000000000003,0.10200000000000002 4.5073,0.10200000000000002 c1.4634,0 2.6066000000000003,-0.3132000000000002 3.4294000000000002,-0.9393 c0.7865,-0.5825 1.1726,-1.3545 1.1726,-2.3228 zm13.1213,14.890600000000001 h-3.8595 c0.19670000000000018,-2.8472 0.2987,-6.0948 0.2987,-9.7499 c0,-4.107 -0.2475000000000001,-7.5582 -0.7502000000000004,-10.347 l4.2671,-0.5753 c-0.16730000000000014,2.9707 -0.2548,6.6117 -0.2548,10.9223 c0,3.4148 0.10200000000000002,6.6624 0.2987,9.7499 zm0.8954000000000004,-26.665 c0,0.7208000000000004 -0.233,1.3545 -0.7063,1.8858000000000001 c-0.466,0.5317000000000004 -1.1284,0.801 -1.9806,0.801 c-0.7280000000000004,0 -1.2887,-0.233 -1.6963000000000008,-0.6917000000000008 c-0.4080000000000002,-0.466 -0.6119000000000004,-1.0195 -0.6119000000000004,-1.674600000000001 c0,-0.7135 0.2475000000000001,-1.3327 0.7284,-1.8568000000000002 c0.4805000000000002,-0.5244 1.1501000000000001,-0.7865 2.0023,-0.7865 c0.6990000000000007,0 1.2525,0.2258000000000001 1.6601000000000008,0.6918000000000007 c0.4007,0.4587 0.6043000000000004,1.0046 0.6043000000000004,1.6310000000000002 zm25.3689,23.9343 c0,0.7429000000000004 -0.16730000000000014,2.4832 -0.5023,5.2284 c-0.33500000000000035,2.7449000000000003 -0.5027,4.8641000000000005 -0.5027,6.3565000000000005 h-2.5409 c0,-1.8056 -0.014900000000000007,-4.7911 -0.05840000000000003,-8.9634 c-1.937,-0.08030000000000002 -4.6674,-0.12380000000000002 -8.1919,-0.12380000000000002 c-2.2643,0 -4.6819000000000015,0.04350000000000004 -7.2522,0.12380000000000002 c-0.6700000000000007,4.1723 -1.005,7.1578 -1.005,8.9634 h-2.5412 c0,-1.2815 -0.007300000000000007,-3.0944 -0.029100000000000015,-5.4317 c-0.021700000000000014,-2.3377 -0.03630000000000001,-4.3908000000000005 -0.03630000000000001,-6.1532 h2.1189 c1.4343000000000001,-5.1625 3.903,-11.0097 7.3981,-17.5339 h6.1674 l2.8762,-0.4076 c-0.1822000000000001,2.9707 -0.2769000000000002,6.6117 -0.2769000000000002,10.9223 c0,1.733 0.13140000000000004,4.0776 0.3862000000000002,7.0192 zm-7.2522,0 c-0.16040000000000018,-2.7743 -0.233,-5.1116 -0.233,-7.0192 c0,-2.84 -0.05840000000000003,-5.4612 -0.1749000000000001,-7.8496000000000015 h-3.7136 c-0.8812000000000004,1.5947 -1.9224999999999999,3.7208 -3.1311,6.3858 c-1.2085,2.6723 -2.1917,5.4978 -2.9488000000000003,8.483 z"/>
    <path id="path20" style="fill:#003d36;fill-rule:evenodd" d="m478.4321309461594,413.9528772152901 c0,0.8220000000000004 -0.18510000000000001,2.7481 -0.556,5.7863 c-0.3705000000000002,3.0381 -0.556,5.3834 -0.556,7.0355 h-2.8124000000000002 c0,-1.9987 -0.016300000000000023,-5.3029 -0.06460000000000007,-9.9205 c-2.1435,-0.08860000000000011 -5.1657,-0.13720000000000004 -9.0662,-0.13720000000000004 c-2.5064,0 -5.182,0.04860000000000004 -8.0267,0.13720000000000004 c-0.7415,4.6176 -1.112,7.9218 -1.112,9.9205 h-2.8128 c0,-1.4183000000000001 -0.008000000000000007,-3.425 -0.03190000000000001,-6.012 c-0.024300000000000026,-2.5871 -0.04070000000000003,-4.8594 -0.04070000000000003,-6.8098 h2.3453 c1.5875,-5.7137 4.3197,-12.1849 8.1879,-19.4059 h6.8257 l3.1834000000000002,-0.4511 c-0.2015,3.2878 -0.3064000000000002,7.3175 -0.3064000000000002,12.0883 c0,1.9181 0.1452000000000001,4.5131 0.4272,7.7687 zm-8.0263,0 c-0.1775000000000001,-3.0705 -0.2581,-5.6571 -0.2581,-7.7687 c0,-3.143 -0.06460000000000007,-6.0443 -0.19340000000000018,-8.6876 h-4.1099 c-0.9752,1.7649000000000008 -2.1275,4.1182 -3.4653,7.0678 c-1.3378,2.9576000000000002 -2.4259,6.0843 -3.2639,9.3885 zm34.0003,-8.880700000000001 c0,4.0293 -1.1607,7.1803 -3.4737,9.4367 c-2.3126,2.2567 -5.0365,3.3847 -8.1715,3.3847 c-2.9253,0 -5.4397,-0.9991 -7.5433,-2.9978 c-2.1032,-1.9987 -3.151,-4.8191 -3.151,-8.4535 c0,-4.062 1.1607,-7.229 3.4816000000000003,-9.5097 c2.321,-2.2887 5.0529,-3.4251 8.1799,-3.4251 c2.9333,0 5.4397,1.0076 7.535,3.0302 c2.0952,2.0227 3.143,4.8677 3.143,8.5345 zm-4.0859,0.8300000000000004 c0,-2.4582 -0.6207000000000007,-4.642 -1.8536000000000001,-6.5521 c-1.2412,-1.9098000000000002 -2.9978,-2.8687 -5.2785,-2.8687 c-2.2648,0 -4.0134,0.9023 -5.2303,2.7159 c-1.2169,1.8132000000000001 -1.8292000000000002,3.9085 -1.8292000000000002,6.302 c0,2.4738 0.6202000000000004,4.658 1.8535,6.5678 c1.2329,1.9021 3.0058,2.853 5.3025,2.853 c2.2647,0 4.0054,-0.9106000000000004 5.2143,-2.7238 c1.217,-1.8216 1.8213,-3.9169 1.8213,-6.2941 z"/>
    <g id="Layer1001">
      <path id="path22" style="fill:#003d36;fill-rule:evenodd" d="m233.08523094615936,105.18187721529006 h8.7981 c0,5.1947 0,6.1146 0,11.1842 c-1.6327000000000007,2.0641 -7.134,2.1765 -8.7981,-0.022200000000000015 c0,-5.4062 0,-5.4567 0,-11.162 z"/>
      <path id="path24" style="fill:#003d36;fill-rule:evenodd" d="m250.63313094615938,105.18187721529006 h8.7981 c0,5.1947 0,6.1146 0,11.1842 c-1.6327000000000007,2.0641 -7.1341,2.1765 -8.7981,-0.022200000000000015 c0,-5.4062 0,-5.4567 0,-11.162 z"/>
      <path id="path26" style="fill:#003d36;fill-rule:evenodd" d="m266.61283094615936,105.18187721529006 h8.7982 c0,5.1947 0,6.1146 0,11.1842 c-1.6328,2.0641 -7.1341,2.1765 -8.7982,-0.022200000000000015 c0,-5.4062 0,-5.4567 0,-11.162 z"/>
    </g>
    <path id="path29" style="fill:#003d36;fill-rule:evenodd" d="m233.08523094615936,133.20157721529006 h8.7981 c0,5.1947 0,6.1145 0,11.1841 c-1.6327000000000007,2.0641 -7.134,2.1766 -8.7981,-0.02210000000000002 c0,-5.4063 0,-5.4567 0,-11.162 z"/>
    <path id="path31" style="fill:#003d36;fill-rule:evenodd" d="m250.63313094615938,133.20157721529006 h8.7981 c0,5.1947 0,6.1145 0,11.1841 c-1.6327000000000007,2.0641 -7.1341,2.1766 -8.7981,-0.02210000000000002 c0,-5.4063 0,-5.4567 0,-11.162 z"/>
    <path id="path33" style="fill:#003d36;fill-rule:evenodd" d="m266.61283094615936,133.20157721529006 h8.7982 c0,5.1947 0,6.1145 0,11.1841 c-1.6328,2.0641 -7.1341,2.1766 -8.7982,-0.02210000000000002 c0,-5.4063 0,-5.4567 0,-11.162 z"/>
    <g id="Layer1002">
      <path id="path35" style="fill:#003d36;fill-rule:evenodd" d="m233.08523094615936,156.44167721529004 h8.7981 c0,5.1947 0,6.1146 0,11.1841 c-1.6327000000000007,2.0641 -7.134,2.1766 -8.7981,-0.02210000000000002 c0,-5.4063 0,-5.4567 0,-11.162 z"/>
      <path id="path37" style="fill:#003d36;fill-rule:evenodd" d="m250.63313094615938,156.44167721529004 h8.7981 c0,5.1947 0,6.1146 0,11.1841 c-1.6327000000000007,2.0641 -7.1341,2.1766 -8.7981,-0.02210000000000002 c0,-5.4063 0,-5.4567 0,-11.162 z"/>
      <path id="path39" style="fill:#003d36;fill-rule:evenodd" d="m266.61283094615936,156.44167721529004 h8.7982 c0,5.1947 0,6.1146 0,11.1841 c-1.6328,2.0641 -7.1341,2.1766 -8.7982,-0.02210000000000002 c0,-5.4063 0,-5.4567 0,-11.162 z"/>
    </g>
    <path id="path42" style="fill:#003d36;fill-rule:evenodd" d="m198.45093094615936,133.20157721529006 h8.7982 c0,5.1947 0,6.1145 0,11.1841 c-1.6328,2.0641 -7.1341,2.1766 -8.7982,-0.02210000000000002 c0,-5.4063 0,-5.4567 0,-11.162 z"/>
    <path id="path44" style="fill:#003d36;fill-rule:evenodd" d="m304.25783094615934,133.20157721529006 h8.7981 c0,5.1947 0,6.1145 0,11.1841 c-1.6327000000000007,2.0641 -7.1341,2.1766 -8.7981,-0.02210000000000002 c0,-5.4063 0,-5.4567 0,-11.162 z"/>
    <path id="path46" style="fill:#003d36;fill-rule:evenodd" d="m304.25783094615934,156.44167721529004 h8.7981 c0,5.1947 0,6.1146 0,11.1841 c-1.6327000000000007,2.0641 -7.1341,2.1766 -8.7981,-0.02210000000000002 c0,-5.4063 0,-5.4567 0,-11.162 z"/>
    <path id="path48" style="fill:#003d36;fill-rule:evenodd" d="m198.45093094615936,154.88967721529008 h8.7982 c0,5.1947 0,6.1146 0,11.1842 c-1.6328,2.064 -7.1341,2.1765 -8.7982,-0.022200000000000015 c0,-5.4062 0,-5.4567 0,-11.162 z"/>
  </g></g></svg>