<?xml version="1.0"?>
<svg xmlns="http://www.w3.org/2000/svg" xmlns:xlink="http://www.w3.org/1999/xlink" version="1.1" id="Layer_1" x="0px" y="0px" viewBox="0 0 512 512" style="enable-background:new 0 0 512 512;" xml:space="preserve" width="512px" height="512px" class=""><g><g>
	<g>
		<path d="M460.8,0c-4.325,0-7.831,3.506-7.831,7.831v23.492h-34.782c-2.26-4.819-5.695-9.17-10.244-12.58    c-5.862-4.386-12.817-6.705-20.113-6.705c-10.517,0-20.556,5.01-26.869,13.405l-4.554,5.88h-65.018    c-10.807-5.573-22.923-8.641-35.386-8.641c-12.463,0-24.578,3.068-35.387,8.641h-62.746l-4.554-5.883    c-6.311-8.393-16.35-13.402-26.866-13.402c-7.296,0-14.25,2.319-20.117,6.708c-4.548,3.408-7.981,7.758-10.24,12.577H59.031V7.831    C59.031,3.506,55.525,0,51.2,0s-7.831,3.506-7.831,7.831v496.339c0,4.325,3.506,7.831,7.831,7.831s7.831-3.506,7.831-7.831V46.984    h33.896c0.253,6.504,2.388,12.998,6.537,18.607l77.63,115.258c2.901,4.306,4.433,9.326,4.433,14.518l0.051,239.364    c0,18.225,14.524,33.558,32.366,34.182c9.197,0.332,17.918-2.999,24.535-9.38c6.626-6.39,10.274-14.979,10.274-24.187V325.952    c0-4.647,3.427-8.521,7.802-8.821c2.478-0.174,4.806,0.7,6.555,2.448c1.591,1.591,2.468,3.701,2.468,5.939v109.257    c0,18.525,14.805,33.849,33.001,34.158c0.198,0.004,0.394,0.005,0.591,0.005c8.965,0,17.377-3.477,23.756-9.841    c6.338-6.352,9.828-14.788,9.828-23.752v-239.98c0-5.192,1.532-10.212,4.433-14.518l77.63-115.258    c4.149-5.609,6.284-12.102,6.537-18.607h31.618v457.186c0,4.325,3.506,7.831,7.831,7.831s7.831-3.506,7.831-7.831V7.831    C468.631,3.506,465.125,0,460.8,0z M344.284,46.984l-9.775,12.629c-3.312-1.894-7.133-2.991-11.213-2.991h-3.266    c-2.339-3.437-4.94-6.656-7.768-9.638H344.284z M312.225,101.98h5.437c-1.028,33.131-28.279,59.77-61.654,59.77    s-60.629-26.64-61.657-59.77h92.776c4.325,0,7.831-3.506,7.831-7.831s-3.506-7.831-7.831-7.831h-98.411    c-3.87,0-7.019-3.148-7.019-7.017s3.148-7.019,7.019-7.019h134.583c3.87,0,7.019,3.148,7.019,7.019    c0,3.87-3.148,7.017-7.019,7.017h-11.073c-4.325,0-7.831,3.506-7.831,7.831S307.9,101.98,312.225,101.98z M256.005,38.342    c16.538,0,32.303,6.778,43.772,18.279h-87.544C223.702,45.12,239.467,38.342,256.005,38.342z M199.747,46.984    c-2.826,2.982-5.428,6.201-7.768,9.638h-3.266c-3.43,0-6.67,0.788-9.588,2.156l-9.129-11.794H199.747z M112.35,56.689    c-0.073-0.11-0.149-0.217-0.229-0.322c-5.924-7.906-4.307-19.161,3.601-25.086c3.133-2.344,6.844-3.583,10.73-3.583    c5.715,0,10.953,2.618,14.371,7.182c0.025,0.034,0.051,0.066,0.076,0.1l27.135,35.053c-1.275,2.833-2.001,5.963-2.001,9.267    c0,8.888,5.153,16.577,12.616,20.293c-0.001,0.152-0.01,0.3-0.01,0.452c0,7.123,0.988,14.017,2.799,20.572l-15.554,15.554    L112.35,56.689z M317.093,435.346c0,4.787-1.865,9.294-5.24,12.678c-3.478,3.47-8.097,5.336-13.007,5.251    c-9.708-0.165-17.606-8.464-17.606-18.499v-79.631h35.853V435.346z M324.198,172.098c-4.648,6.902-7.105,14.947-7.105,23.266    v78.359h-8.885c-4.325,0-7.831,3.506-7.831,7.831s3.506,7.831,7.831,7.831h8.885v50.096H281.24v-13.965    c0-6.421-2.506-12.464-7.056-17.014c-4.924-4.924-11.739-7.473-18.699-6.998c-12.557,0.86-22.392,11.598-22.392,24.446v13.531    h-19.454c-4.325,0-7.831,3.506-7.831,7.831s3.506,7.831,7.831,7.831h19.454v80.201c0,4.916-1.948,9.503-5.485,12.913    c-3.529,3.404-8.187,5.177-13.106,5.002c-9.517-0.332-17.261-8.645-17.261-18.531l-0.051-145.344h83.914    c4.325,0,7.831-3.506,7.831-7.831s-3.506-7.831-7.831-7.831H197.19v-78.359c0-8.321-2.458-16.366-7.105-23.266L174.8,149.404    l12.963-12.963c13.043,24.357,38.736,40.967,68.244,40.967c30.388,0,56.727-17.619,69.373-43.171l14.531,14.531L324.198,172.098z     M402.161,56.367c-0.078,0.105-0.154,0.212-0.228,0.32l-53.108,78.849l-17.572-17.572c1.371-5.756,2.118-11.751,2.118-17.92    c0-0.152-0.008-0.3-0.01-0.452c7.463-3.716,12.616-11.406,12.616-20.293c0-2.564-0.448-5.02-1.235-7.32l28.641-36.999    c0.025-0.033,0.051-0.066,0.076-0.1c3.419-4.565,8.657-7.182,14.372-7.182c3.888,0,7.598,1.238,10.725,3.58    C406.467,37.206,408.084,48.462,402.161,56.367z" data-original="#000000" class="active-path" data-old_color="#e74c3c" fill="#e74c3c"/>
	</g>
</g></g> </svg>
