<?xml version="1.0"?>
<svg xmlns="http://www.w3.org/2000/svg" xmlns:xlink="http://www.w3.org/1999/xlink" version="1.1" id="Layer_1" x="0px" y="0px" viewBox="0 0 512 512" style="enable-background:new 0 0 512 512;" xml:space="preserve" width="512px" height="512px" class=""><g><g>
	<g>
		<path d="M402.264,302.559V58.015h87.87c4.705,0,8.518-3.813,8.518-8.518V8.518c0-4.705-3.814-8.518-8.518-8.518H93.504    c-4.705,0-8.518,3.813-8.518,8.518s3.813,8.518,8.518,8.518h388.112v23.943H30.382V17.036h30.36c4.705,0,8.518-3.813,8.518-8.518    S65.447,0,60.742,0H21.864c-4.705,0-8.518,3.813-8.518,8.518v40.979c0,4.705,3.814,8.518,8.518,8.518h87.873v244.544    c-53.874,4.353-96.391,49.557-96.391,104.533C13.346,464.939,60.408,512,118.255,512c57.847,0,104.909-47.062,104.909-104.908    c0-54.976-42.516-100.18-96.391-104.533V58.015h258.454v244.544c-53.874,4.353-96.391,49.557-96.391,104.533    c0,57.847,47.062,104.908,104.909,104.908c57.847,0,104.908-47.062,104.908-104.908    C498.654,352.116,456.138,306.912,402.264,302.559z M206.127,407.092c0,48.452-39.419,87.872-87.873,87.872    c-48.454,0-87.873-39.419-87.873-87.872c0-48.452,39.419-87.872,87.873-87.872C166.708,319.22,206.127,358.64,206.127,407.092z     M393.745,494.964c-48.454,0-87.873-39.419-87.873-87.872c0-48.452,39.419-87.872,87.873-87.872    c48.452,0,87.872,39.419,87.872,87.872C481.616,455.544,442.197,494.964,393.745,494.964z" data-original="#000000" class="active-path" data-old_color="#e74c3c" fill="#e74c3c"/>
	</g>
</g><g>
	<g>
		<path d="M118.254,337.554c-38.343,0-69.538,31.195-69.538,69.538s31.195,69.538,69.538,69.538s69.538-31.195,69.538-69.538    C187.792,368.749,156.597,337.554,118.254,337.554z M118.255,459.594c-28.949,0-52.502-23.552-52.502-52.502    c0-28.95,23.553-52.502,52.502-52.502c28.948,0,52.502,23.552,52.502,52.502C170.757,436.042,147.204,459.594,118.255,459.594z" data-original="#000000" class="active-path" data-old_color="#e74c3c" fill="#e74c3c"/>
	</g>
</g><g>
	<g>
		<path d="M451.064,367.709c-2.668-3.875-7.972-4.855-11.847-2.187c-3.875,2.668-4.854,7.972-2.187,11.847    c6.031,8.762,9.217,19.039,9.217,29.724c0,28.95-23.552,52.502-52.502,52.502s-52.502-23.552-52.502-52.502    c0-28.95,23.553-52.502,52.502-52.502c8.664,0,17.246,2.152,24.818,6.224c4.145,2.228,9.31,0.675,11.536-3.469    c2.228-4.144,0.676-9.31-3.468-11.536c-10.045-5.401-21.417-8.255-32.887-8.255c-38.345-0.001-69.538,31.193-69.538,69.537    s31.195,69.538,69.538,69.538s69.538-31.195,69.538-69.538C463.283,392.943,459.056,379.324,451.064,367.709z" data-original="#000000" class="active-path" data-old_color="#e74c3c" fill="#e74c3c"/>
	</g>
</g></g> </svg>
