<?xml version="1.0"?>
<svg xmlns="http://www.w3.org/2000/svg" height="512px" viewBox="-92 0 512 512.00576" width="512px"><g><path d="m320.421875 410.476562c4.140625 0 7.5-3.355468 7.5-7.496093v-12.460938c0-12.035156-7.125-22.960937-18.15625-27.832031-4.023437-1.773438-63.367187-27.921875-69.6875-30.707031-5.433594-2.394531-8.941406-7.78125-8.941406-13.726563v-31.679687c2.652343-2.625 5.28125-5.40625 7.875-8.335938 12.023437-13.589843 21.257812-28.304687 26.921875-42.460937h6.058594c16.757812 0 30.390624-13.632813 30.390624-30.386719v-13.910156c0-9.21875-4.125-17.488281-10.628906-23.066407 1.375-8.382812 2.070313-16.945312 2.070313-25.511718 0-46.683594-12.800781-83.121094-38.046875-108.300782-22.695313-22.636718-54.445313-34.601562-91.816406-34.601562-37.375 0-69.125 11.964844-91.820313 34.601562-25.246094 25.179688-38.042969 61.617188-38.042969 108.300782 0 8.566406.691406 17.125 2.066406 25.511718-6.5 5.578126-10.628906 13.847657-10.628906 23.066407v13.910156c0 16.753906 13.632813 30.386719 30.390625 30.386719h6.027344c1.800781 4.496094 3.976563 9.066406 6.507813 13.667968 1.996093 3.628907 6.554687 4.953126 10.183593 2.953126 3.628907-1.996094 4.953125-6.554688 2.957031-10.183594-3.042968-5.527344-5.480468-10.945313-7.28125-16.152344-.042968-.140625-.089843-.277344-.140624-.414062-2.375-6.976563-3.597657-13.570313-3.597657-19.527344 0-.0625-.003906-.125-.003906-.1875-.007813-.324219-.4375-18-.59375-37.265625 0-.027344 0-.050781 0-.074219 0-.074219 0-.144531-.003906-.214844-.128907-16.304687-.054688-33.695312.640625-42.636718.976562-12.59375 8.050781-16.546876 18.371094-18.613282 7.875-1.570312 16.503906 2.15625 27.421874 6.878906 12.480469 5.390626 28.011719 12.105469 47.578126 12.105469 19.566406 0 35.082031-6.714843 47.550781-12.109375 10.898437-4.71875 19.515625-8.449218 27.382812-6.875 10.324219 2.066406 17.398438 6.019532 18.378907 18.613282.691406 8.941406.761718 26.328124.636718 42.636718-.003906.070313-.003906.140625-.003906.214844v.074219c-.152344 19.265625-.585938 36.941406-.59375 37.265625v.1875c0 17.746094-11.328125 41.574218-29.5625 62.179687-2.921875 3.304688-5.914062 6.40625-8.933594 9.289063-.25.207031-.484375.429687-.707031.667968-14.703125 13.835938-29.996094 22.328126-40.949219 22.328126h-26.457031c-10.9375 0-26.402344-8.652344-41.078125-22.460938-.144531-.152344-.296875-.292969-.453125-.429688-3.773437-3.582031-7.488281-7.5-11.058594-11.699218-2.683593-3.15625-7.417969-3.539063-10.574219-.855469-3.152343 2.683594-3.539062 7.417969-.855468 10.570313 3.070312 3.609374 6.453125 7.261718 10.074218 10.820312v31.726562c0 5.945313-3.511718 11.332032-8.945312 13.726563-8.328125 3.671875-57.945312 25.535156-69.691406 30.710937-11.023438 4.871094-18.14843775 15.792969-18.14843775 27.828126v68.898437c0 8.265625 4.82031275 15.949219 12.27734375 19.570313 91.5 44.535156 213.992188 43.5 303.363281.003906 7.460938-3.625 12.28125-11.308594 12.28125-19.574219v-26.445313c0-4.140624-3.355469-7.5-7.5-7.5-4.140625 0-7.5 3.359376-7.5 7.5v26.4375c0 2.605469-1.46875 4.933594-3.839843 6.085938-5.113282 2.492188-10.34375 4.835938-15.679688 7.039062v-36.269531c0-4.140625-3.359375-7.5-7.5-7.5s-7.5 3.359375-7.5 7.5v5.824219c-3.167969-3.390625-5.992188-9.140625-5.992188-18.863281 0-14.035157 1.972657-38.132813 3.964844-58.867188l27.339844 12.046875c5.59375 2.46875 9.207031 8.007813 9.207031 14.105469v12.464844c-.003906 4.140625 3.351563 7.496093 7.496094 7.496093zm-33.039063-205.085937c0 8.484375-6.902343 15.386719-15.390624 15.386719h-1.359376c1.113282-5.042969 1.699219-9.925782 1.707032-14.5625.039062-1.628906.351562-14.582032.527344-30.097656 2.492187.136718 4.828124.875 6.863281 2.0625.03125.019531.0625.039062.09375.054687 4.523437 2.683594 7.558593 7.617187 7.558593 13.246094zm-231.457031 15.386719c-8.488281 0-15.390625-6.902344-15.390625-15.386719v-13.910156c0-5.628907 3.039063-10.5625 7.558594-13.246094.03125-.015625.0625-.035156.09375-.054687 2.039062-1.1875 4.371094-1.925782 6.863281-2.0625.179688 15.515624.488281 28.46875.53125 30.097656.007813 4.632812.578125 9.511718 1.6875 14.5625zm185.9375-128.359375c-12.472656-2.488281-24.035156 2.519531-36.28125 7.816406-11.78125 5.097656-25.128906 10.875-41.59375 10.875-16.464843 0-29.832031-5.777344-41.625-10.875-12.257812-5.300781-23.839843-10.304687-36.3125-7.816406-18.800781 3.761719-29.023437 14.582031-30.390625 32.160156-.625 8.074219-.777344 22.234375-.726562 36.53125-1.570313.050781-3.113282.21875-4.617188.5-.8125-6.175781-1.222656-12.4375-1.222656-18.707031 0-42.554688 11.316406-75.417969 33.636719-97.683594 19.824219-19.769531 47.910156-30.21875 81.230469-30.21875 33.316406 0 61.402343 10.449219 81.226562 30.222656 22.316406 22.261719 33.636719 55.128906 33.636719 97.679688 0 6.269531-.410157 12.535156-1.226563 18.710937-1.5-.28125-3.042968-.453125-4.613281-.503906.046875-14.292969-.101563-28.457031-.730469-36.53125-1.363281-17.578125-11.585937-28.398437-30.390625-32.160156zm-130.082031 225.835937v-18.773437c12.507812 9.371093 26.253906 16.101562 38.949219 16.101562h26.457031c11.550781 0 25.195312-5.734375 38.949219-16.011719v18.683594c0 11.890625 7.023437 22.664063 17.894531 27.453125l1.390625.613281c-2.707031 37.035157-33.800781 66.402344-71.460937 66.402344-37.660157 0-68.753907-29.367187-71.464844-66.402344l1.390625-.613281c10.871093-4.789062 17.894531-15.566406 17.894531-27.453125zm-96.785156 141.160156v-68.894531c0-6.101562 3.617187-11.636719 9.207031-14.105469l27.34375-12.050781c1.992187 20.734375 3.964844 44.832031 3.964844 58.871094 0 9.722656-2.828125 15.46875-5.996094 18.863281v-5.828125c0-4.140625-3.355469-7.5-7.496094-7.5-4.144531 0-7.5 3.359375-7.5 7.5v36.269531c-5.339843-2.203124-10.570312-4.550781-15.6875-7.039062-2.363281-1.152344-3.835937-3.480469-3.835937-6.085938zm220.628906 3.5625h-143.332031v-8.5h143.332031zm-143.332031 15h143.332031v11.917969c-45.632812 9.210938-95.46875 9.664063-143.332031 0zm186.109375-18.003906v18.261719c-8.996094 3.144531-18.277344 5.910156-27.777344 8.28125v-35.539063c0-6.339843-5.160156-11.5-11.5-11.5h-150.332031c-6.339844 0-11.5 5.160157-11.5 11.5v35.539063c-9.5-2.375-18.78125-5.136719-27.777344-8.28125v-18.261719c9.5-3.941406 20.996094-14.496094 20.996094-36.742187 0-15.742188-2.339844-43.164063-4.515625-65.238281l12.085937-5.324219c5.710938 42.28125 42.128907 75.054687 85.878907 75.054687 43.746093 0 80.167968-32.773437 85.875-75.054687l12.085937 5.324219c-2.171875 22.074218-4.511719 49.496093-4.511719 65.238281 0 22.246093 11.496094 32.804687 20.992188 36.742187zm0 0" data-original="#000000" class="active-path" data-old_color="#2825d6" fill="#2825d6"/><path d="m112.460938 183.523438v3.167968c0 4.144532 3.359374 7.5 7.5 7.5 4.140624 0 7.5-3.355468 7.5-7.5v-3.167968c0-4.140626-3.359376-7.496094-7.5-7.496094-4.140626 0-7.5 3.355468-7.5 7.496094zm0 0" data-original="#000000" class="active-path" data-old_color="#2825d6" fill="#2825d6"/><path d="m200.457031 183.523438v3.167968c0 4.144532 3.359375 7.5 7.5 7.5s7.5-3.355468 7.5-7.5v-3.167968c0-4.140626-3.359375-7.496094-7.5-7.496094s-7.5 3.355468-7.5 7.496094zm0 0" data-original="#000000" class="active-path" data-old_color="#2825d6" fill="#2825d6"/><path d="m225.085938 164.980469c2.769531 0 5.433593-1.542969 6.738281-4.199219 1.824219-3.714844.289062-8.210938-3.429688-10.035156-13.402343-6.578125-26.996093-6.578125-40.398437 0-3.71875 1.824218-5.253906 6.320312-3.429688 10.039062 1.828125 3.714844 6.324219 5.25 10.039063 3.425782 9.144531-4.488282 18.035156-4.488282 27.183593 0 1.058594.519531 2.1875.769531 3.296876.769531zm0 0" data-original="#000000" class="active-path" data-old_color="#2825d6" fill="#2825d6"/><path d="m139.921875 150.746094c-13.402344-6.578125-26.996094-6.578125-40.398437 0-3.71875 1.824218-5.253907 6.320312-3.425782 10.035156 1.300782 2.65625 3.964844 4.199219 6.734375 4.199219 1.109375 0 2.238281-.25 3.300781-.769531 9.144532-4.488282 18.035157-4.488282 27.179688 0 3.71875 1.824218 8.214844.289062 10.039062-3.429688 1.824219-3.714844.289063-8.210938-3.429687-10.035156zm0 0" data-original="#000000" class="active-path" data-old_color="#2825d6" fill="#2825d6"/><path d="m163.960938 224.289062c-6.375 0-12.585938-1.96875-17.957032-5.691406-3.402344-2.359375-8.074218-1.515625-10.433594 1.890625-2.363281 3.402344-1.515624 8.074219 1.886719 10.433594 7.894531 5.476563 17.058594 8.367187 26.503907 8.367187 9.441406 0 18.605468-2.890624 26.5-8.367187 3.402343-2.359375 4.25-7.03125 1.890624-10.433594-2.363281-3.40625-7.035156-4.25-10.4375-1.890625-5.371093 3.722656-11.582031 5.691406-17.953124 5.691406zm0 0" data-original="#000000" class="active-path" data-old_color="#2825d6" fill="#2825d6"/></g> </svg>
