<?xml version="1.0"?>
<svg xmlns="http://www.w3.org/2000/svg" height="512px" viewBox="-53 0 512 512.00293" width="512px" class=""><g><path d="m252.839844 432.617188c-3.828125 1.195312-7.628906 2.40625-11.421875 3.617187-45.675781 14.570313-88.820313 28.332031-158.238281-3.222656-4.125-1.875-8.996094-.738281-11.871094 2.761719-.3125.382812-27.097656 32.859374-51.308594 49.558593v-253.480469c24.039062 2.308594 61.507812 12.9375 78.453125 42.285157 2.761719 4.78125 8.875 6.417969 13.65625 3.660156 4.785156-2.761719 6.421875-8.878906 3.660156-13.660156-24.0625-41.675781-77.804687-52.796875-105.769531-52.796875-5.523438 0-10 4.476562-10 10v280.664062c0 2.988282 1.339844 5.824219 3.648438 7.722656 1.804687 1.484376 4.054687 2.277344 6.351562 2.277344.644531 0 1.289062-.0625 1.929688-.1875 1.578124-.3125 3.027343-.765625 4.429687-1.394531 24.550781-10.984375 53.945313-42.902344 65.476563-56.15625 72.488281 30.746094 119.832031 15.640625 165.664062 1.023437 3.746094-1.195312 7.503906-2.398437 11.285156-3.574218 5.273438-1.640625 8.214844-7.246094 6.574219-12.519532-1.640625-5.273437-7.246094-8.21875-12.519531-6.578124zm0 0" data-original="#000000" class="active-path" data-old_color="#2825d6" fill="#2825d6"/><path d="m381.628906 138.722656c-3.207031-12.5-5.742187-22.375-6.699218-28.242187-3.703126-22.753907-26.539063-75.039063-64.894532-98.621094-19.859375-12.214844-40.652344-15.007813-61.792968-8.3125-29.101563 9.21875-43.847657 17.125-50.886719 27.285156-7.992188 11.535157-4.605469 23.648438-1.332031 35.363281.011718.039063.023437.078126.035156.121094-3.816406 2.53125-7.03125 5.925782-9.394532 10.019532-4.011718 6.953124-5.085937 15.03125-3.015624 22.75l4.074218 15.203124c2.066406 7.71875 7.035156 14.179688 13.988282 18.195313 4.636718 2.675781 9.777343 4.046875 14.976562 4.046875 2.433594 0 4.878906-.3125 7.289062-.917969 15.972657 9.109375 36.6875 10.539063 48.980469 10.4375.773438 24.722657-3.558593 46.335938-8.117187 69.070313-4.167969 20.789062-8.445313 42.105468-8.445313 65.878906-21.351562-17.066406-43.914062-28.105469-67.300781-32.910156-5.40625-1.113282-10.695312 2.375-11.808594 7.78125-1.109375 5.410156 2.375 10.695312 7.785156 11.808594 26.410157 5.425781 51.917969 20.289062 75.808594 44.183593 1.921875 1.917969 4.480469 2.929688 7.074219 2.929688 1.5 0 3.015625-.339844 4.425781-1.035157 3.839844-1.898437 6.046875-6.03125 5.484375-10.28125-4.117187-31.066406 1.082031-56.984374 6.585938-84.421874 4.691406-23.394532 9.503906-47.523438 8.414062-75.34375 9.03125-2.441407 16.238281-6.625 21.492188-12.496094 3.683593-4.113282 3.332031-10.4375-.785157-14.117188-4.113281-3.683594-10.433593-3.332031-14.117187.78125-3.628906 4.054688-9.777344 6.679688-18.269531 7.796875-7.113282.714844-24.578125.953125-38.785156-3.722656 4.039062-6.730469 5.460937-15.023437 3.273437-23.191406l-4.074219-15.203125c-3.324218-12.421875-14.027344-20.929688-26.132812-22.097656-.058594-.214844-.121094-.433594-.179688-.652344-3-10.722656-3.90625-15.101563-1.492187-18.585938 4.050781-5.847656 17.296875-12.261718 40.488281-19.609375 15.355469-4.863281 30.589844-2.75 45.277344 6.28125 32.445312 19.953125 52.539062 65.808594 55.632812 84.800781 1.101563 6.753907 3.730469 17.011719 7.066406 30 13.335938 51.964844 38.160157 148.691407 12.589844 207.96875-5.605468 12.988282-7.640625 23.738282-9.277344 32.378907-1.792968 9.453125-2.890624 14.574219-6.390624 18.585937-4.300782 4.921875-13.101563 8.886719-27.703126 12.484375-5.359374 1.320313-8.636718 6.738281-7.316406 12.097657 1.121094 4.5625 5.207032 7.613281 9.699219 7.613281.792969 0 1.597656-.097657 2.398437-.292969 40.03125-9.859375 44.683594-24.191406 48.960938-46.765625 1.527344-8.070313 3.261719-17.21875 7.992188-28.179687 28.277343-65.554688 2.347656-166.585938-11.582032-220.863282zm-159.34375-49.988281 4.074219 15.203125c1.425781 5.328125-1.746094 10.820312-7.070313 12.246094-2.5625.6875-5.25.324218-7.578124-1.019532-2.324219-1.339843-3.984376-3.492187-4.667969-6.050781l-4.074219-15.203125c-.6875-2.558594-.324219-5.25 1.019531-7.574218 1.34375-2.328126 3.492188-3.984376 6.050781-4.671876 5.324219-1.425781 10.816407 1.746094 12.246094 7.070313zm0 0" data-original="#000000" class="active-path" data-old_color="#2825d6" fill="#2825d6"/><path d="m107.335938 356.234375c-2.304688 5.019531-.105469 10.957031 4.914062 13.261719 1.660156.761718 26.972656 12.070312 64.078125 12.070312 22.339844 0 48.953125-4.101562 77.25-17.070312 5.019531-2.300782 7.226563-8.234375 4.925781-13.253906-2.304687-5.019532-8.238281-7.226563-13.257812-4.925782-66.546875 30.5-123.894532 5.34375-124.671875 4.996094-5.011719-2.292969-10.9375-.089844-13.238281 4.921875zm0 0" data-original="#000000" class="active-path" data-old_color="#2825d6" fill="#2825d6"/><path d="m146.285156 266.441406c.222656 0 .449219-.007812.675782-.019531 5.511718-.367187 9.679687-5.132813 9.3125-10.644531-.367188-5.511719-5.148438-9.683594-10.644532-9.3125h-.003906c-5.511719.367187-9.675781 5.132812-9.308594 10.644531.351563 5.28125 4.75 9.332031 9.96875 9.332031zm0 0" data-original="#000000" class="active-path" data-old_color="#2825d6" fill="#2825d6"/><path d="m292.457031 422.261719h-.007812c-5.425781 1.019531-9 6.246093-7.980469 11.671875.902344 4.804687 5.101562 8.15625 9.820312 8.15625.609376 0 1.230469-.054688 1.851563-.171875 5.429687-1.019531 9.003906-6.242188 7.988281-11.671875-1.019531-5.425782-6.246094-9-11.671875-7.984375zm0 0" data-original="#000000" class="active-path" data-old_color="#2825d6" fill="#2825d6"/></g> </svg>
